<svg xmlns="http://www.w3.org/2000/svg" width="32" height="32" viewBox="0 0 32 32" fill="none"><path d="M4 9.33333V6.66667C4 5.95942 4.28095 5.28115 4.78105 4.78105C5.28115 4.28095 5.95942 4 6.66667 4H9.33333" stroke="#121212" stroke-width="2" stroke-linecap="round" stroke-linejoin="round"></path><path d="M22.667 4H25.3337C26.0409 4 26.7192 4.28095 27.2193 4.78105C27.7194 5.28115 28.0003 5.95942 28.0003 6.66667V9.33333" stroke="#121212" stroke-width="2" stroke-linecap="round" stroke-linejoin="round"></path><path d="M28.0003 22.667V25.3337C28.0003 26.0409 27.7194 26.7192 27.2193 27.2193C26.7192 27.7194 26.0409 28.0003 25.3337 28.0003H22.667" stroke="#121212" stroke-width="2" stroke-linecap="round" stroke-linejoin="round"></path><path d="M9.33333 28.0003H6.66667C5.95942 28.0003 5.28115 27.7194 4.78105 27.2193C4.28095 26.7192 4 26.0409 4 25.3337V22.667" stroke="#121212" stroke-width="2" stroke-linecap="round" stroke-linejoin="round"></path><path d="M9.33301 10.667H19.9997" stroke="#121212" stroke-width="2" stroke-linecap="round" stroke-linejoin="round"></path><path d="M9.33301 16H22.6663" stroke="#121212" stroke-width="2" stroke-linecap="round" stroke-linejoin="round"></path><path d="M9.33301 21.333H17.333" stroke="#121212" stroke-width="2" stroke-linecap="round" stroke-linejoin="round"></path></svg>