<svg xmlns="http://www.w3.org/2000/svg" width="28" height="28" viewBox="0 0 28 28"><path d="M15.75 9.33398H12.25" stroke="#2F3535" stroke-width="2"></path><path d="M17.4997 2.33398L16.333 4.66732H19.833C20.4518 4.66732 21.0453 4.91315 21.4829 5.35074C21.9205 5.78832 22.1663 6.38181 22.1663 7.00065V23.334C22.1663 23.9528 21.9205 24.5463 21.4829 24.9839C21.0453 25.4215 20.4518 25.6673 19.833 25.6673H8.16634C7.5475 25.6673 6.95401 25.4215 6.51643 24.9839C6.07884 24.5463 5.83301 23.9528 5.83301 23.334V7.00065C5.83301 6.38181 6.07884 5.78832 6.51643 5.35074C6.95401 4.91315 7.5475 4.66732 8.16634 4.66732H11.6663" stroke="#2F3535" stroke-width="2"></path><path d="M19.7154 25.6657C19.447 24.3477 18.7315 23.1629 17.6898 22.3119C16.6481 21.4609 15.3444 20.9961 13.9993 20.9961C12.6542 20.9961 11.3505 21.4609 10.3088 22.3119C9.26711 23.1629 8.55153 24.3477 8.2832 25.6657" stroke="#2F3535" stroke-width="2"></path><path d="M10.5 2.33398L14 9.33398" stroke="#2F3535" stroke-width="2"></path><path d="M14 21C15.933 21 17.5 19.433 17.5 17.5C17.5 15.567 15.933 14 14 14C12.067 14 10.5 15.567 10.5 17.5C10.5 19.433 12.067 21 14 21Z" stroke="#2F3535" stroke-width="2"></path></svg>